<mxfile host="app.diagrams.net" modified="2022-07-03T20:27:02.842Z" agent="5.0 (Windows NT 10.0; Win64; x64) AppleWebKit/537.36 (KHTML, like Gecko) Chrome/103.0.5060.66 Safari/537.36" etag="3G2IxYUVmh4ZfA2u51i7" version="20.0.4" type="github">
  <diagram name="Page-1" id="58cdce13-f638-feb5-8d6f-7d28b1aa9fa0">
    <mxGraphModel dx="1157" dy="2305" grid="1" gridSize="10" guides="1" tooltips="1" connect="1" arrows="1" fold="1" page="1" pageScale="1" pageWidth="1100" pageHeight="850" background="none" math="0" shadow="0">
      <root>
        <mxCell id="0" />
        <mxCell id="1" parent="0" />
        <mxCell id="6S6CCSfiCzRfnoM6oYyF-4" value="employees" style="swimlane;fontStyle=1;align=center;verticalAlign=middle;childLayout=stackLayout;horizontal=1;startSize=50;horizontalStack=0;resizeParent=1;resizeParentMax=0;resizeLast=0;collapsible=1;marginBottom=0;fontSize=22;fillColor=#b0e3e6;strokeColor=#0e8088;" vertex="1" parent="1">
          <mxGeometry x="405" y="-1660" width="290" height="210" as="geometry" />
        </mxCell>
        <mxCell id="6S6CCSfiCzRfnoM6oYyF-5" value="-baseSalary : double&#xa;-fuelAll: double&#xa;-medicalAll : double&#xa;" style="text;strokeColor=none;fillColor=none;align=left;verticalAlign=top;spacingLeft=4;spacingRight=4;overflow=hidden;rotatable=0;points=[[0,0.5],[1,0.5]];portConstraint=eastwest;fontSize=18;" vertex="1" parent="6S6CCSfiCzRfnoM6oYyF-4">
          <mxGeometry y="50" width="290" height="90" as="geometry" />
        </mxCell>
        <mxCell id="6S6CCSfiCzRfnoM6oYyF-6" value="" style="line;strokeWidth=1;fillColor=none;align=left;verticalAlign=middle;spacingTop=-1;spacingLeft=3;spacingRight=3;rotatable=0;labelPosition=right;points=[];portConstraint=eastwest;" vertex="1" parent="6S6CCSfiCzRfnoM6oYyF-4">
          <mxGeometry y="140" width="290" height="8" as="geometry" />
        </mxCell>
        <mxCell id="6S6CCSfiCzRfnoM6oYyF-7" value="+ Total(): double" style="text;strokeColor=none;fillColor=none;align=left;verticalAlign=top;spacingLeft=4;spacingRight=4;overflow=hidden;rotatable=0;points=[[0,0.5],[1,0.5]];portConstraint=eastwest;fontSize=18;" vertex="1" parent="6S6CCSfiCzRfnoM6oYyF-4">
          <mxGeometry y="148" width="290" height="62" as="geometry" />
        </mxCell>
      </root>
    </mxGraphModel>
  </diagram>
</mxfile>
